<?xml version="1.0" standalone="no"?>
<!DOCTYPE svg PUBLIC "-//W3C//DTD SVG 20010904//EN"
 "http://www.w3.org/TR/2001/REC-SVG-20010904/DTD/svg10.dtd">
<svg version="1.0" xmlns="http://www.w3.org/2000/svg"
 width="468pt" height="281pt" viewBox="0 0 468 281"
 preserveAspectRatio="xMidYMid meet">
<metadata>
Created by potrace 1.8, written by Peter Selinger 2001-2007
</metadata>
<g transform="translate(0,281) scale(0.058500,-0.058500)"
fill="#000000" stroke="none">
<path d="M1410 4630 c0 -56 3 -70 15 -70 8 0 15 9 15 20 0 13 7 20 18 20 10 0
23 5 30 12 9 9 15 9 24 0 7 -7 20 -12 30 -12 11 0 18 -7 18 -20 0 -11 7 -20
15 -20 12 0 15 14 15 68 l0 69 -32 1 c-18 0 -40 -6 -49 -14 -15 -13 -17 -13
-22 1 -4 9 -19 15 -42 15 l-35 0 0 -70z"/>
<path d="M1906 4673 c20 -83 42 -94 58 -30 12 48 23 47 31 -3 4 -25 12 -40 21
-40 8 0 14 7 14 15 0 8 5 15 10 15 6 0 10 -7 10 -15 0 -8 6 -15 14 -15 9 0 17
15 21 40 4 22 11 42 16 45 14 9 22 -41 9 -64 -8 -17 -8 -21 4 -21 8 0 17 6 20
13 5 10 7 10 12 0 3 -7 12 -13 20 -13 12 0 12 4 4 21 -12 21 -5 77 8 65 4 -4
12 -26 19 -49 11 -37 11 -44 -4 -54 -21 -16 -8 -31 15 -17 9 6 23 34 31 63 12
44 17 51 38 51 l25 0 -21 -34 c-12 -18 -21 -36 -21 -40 0 -3 18 -6 40 -6 22 0
40 5 40 10 0 6 -9 10 -21 10 l-21 0 21 34 c12 18 21 36 21 40 0 3 -25 6 -55 6
-42 0 -55 -3 -55 -15 0 -8 -4 -15 -10 -15 -5 0 -10 6 -10 14 0 11 -16 14 -70
14 -65 0 -70 -1 -71 -21 0 -22 0 -22 -9 1 -5 12 -14 22 -20 22 -6 0 -15 -10
-20 -22 l-9 -23 0 23 c-1 18 -7 22 -31 22 -23 0 -30 -4 -30 -20 0 -11 -4 -20
-10 -20 -5 0 -10 9 -10 20 0 11 -7 20 -15 20 -12 0 -14 -7 -9 -27z"/>
<path d="M1780 4445 c0 -51 3 -65 15 -65 9 0 15 9 15 25 0 19 5 25 23 25 13 0
28 5 35 12 9 9 12 7 12 -8 0 -29 28 -51 75 -56 l41 -6 2 46 c2 59 -18 92 -58
92 -17 0 -34 -8 -42 -19 -14 -20 -14 -20 -26 0 -9 14 -23 19 -52 19 l-40 0 0
-65z"/>
<path d="M2463 4498 c2 -7 10 -37 17 -65 19 -73 42 -72 60 2 7 30 16 55 20 55
4 0 11 -17 14 -37 11 -60 16 -73 31 -73 7 0 16 17 21 38 l8 37 10 -37 c16 -64
37 -50 52 35 8 48 19 54 34 18 9 -24 9 -34 -4 -60 -14 -27 -14 -31 -2 -31 8 0
20 8 26 18 10 16 10 16 20 0 6 -10 18 -18 26 -18 12 0 12 4 -2 32 -15 29 -15
34 0 65 13 28 13 33 1 33 -8 0 -19 -8 -25 -17 -10 -17 -10 -17 -20 0 -7 10
-23 17 -40 17 -24 0 -29 -5 -37 -37 l-9 -38 -8 38 c-4 21 -13 37 -20 37 -8 0
-18 -17 -23 -37 l-9 -38 -8 38 c-6 33 -10 37 -36 37 -25 0 -30 -5 -36 -35 -3
-19 -10 -35 -14 -35 -4 0 -11 16 -14 35 -5 22 -13 35 -23 35 -8 0 -13 -6 -10
-12z"/>
<path d="M2775 4265 c-14 -13 -25 -29 -25 -35 0 -5 -9 -10 -20 -10 -13 0 -20
7 -20 20 0 11 -7 20 -15 20 -8 0 -15 -9 -15 -20 0 -13 -7 -20 -20 -20 -11 0
-20 -4 -20 -10 0 -5 9 -10 20 -10 13 0 20 -7 20 -20 0 -11 7 -20 15 -20 8 0
15 9 15 20 0 28 33 26 64 -5 25 -25 56 -34 56 -16 0 5 -9 13 -20 16 -33 10
-23 21 15 17 63 -8 100 50 53 82 -33 23 -75 20 -103 -9z"/>
<path d="M500 2865 c0 -9 9 -15 25 -15 24 0 25 -2 25 -75 0 -68 2 -75 20 -75
18 0 20 7 20 75 0 73 1 75 25 75 24 0 25 -2 25 -75 0 -68 2 -75 19 -75 17 0
20 8 23 47 4 66 28 70 28 4 0 -44 3 -51 20 -51 18 0 20 7 20 54 0 59 -16 82
-50 73 -17 -4 -20 0 -20 24 l0 29 -90 0 c-73 0 -90 -3 -90 -15z"/>
<path d="M1790 2851 c0 -24 -3 -28 -20 -24 -47 12 -77 -58 -45 -104 12 -16 25
-21 60 -21 l45 1 0 89 c0 81 -2 88 -20 88 -15 0 -20 -7 -20 -29z"/>
<path d="M2740 2851 c0 -24 -3 -28 -20 -24 -47 12 -77 -58 -45 -104 12 -16 25
-21 60 -21 l45 1 0 89 c0 81 -2 88 -20 88 -15 0 -20 -7 -20 -29z"/>
<path d="M1856 2808 c-9 -12 -16 -32 -16 -43 0 -61 74 -89 106 -40 l17 26 11
-23 c13 -26 59 -36 82 -17 23 19 16 31 -15 24 -17 -3 -32 -2 -36 4 -4 7 7 11
29 11 31 0 36 3 36 23 0 55 -80 75 -99 26 -7 -21 -8 -20 -24 5 -22 34 -69 36
-91 4z"/>
<path d="M3490 2764 c0 -57 2 -64 19 -64 17 0 20 8 23 47 4 66 28 70 28 4 0
-44 3 -51 19 -51 17 0 20 8 23 47 4 66 28 70 28 4 0 -44 3 -51 20 -51 18 0 20
7 20 54 0 33 -5 58 -12 63 -7 4 -48 8 -90 9 l-78 1 0 -63z"/>
<path d="M4450 2764 c0 -57 2 -64 19 -64 17 0 20 8 23 47 4 66 28 70 28 4 0
-44 3 -51 19 -51 17 0 20 8 23 47 4 66 28 70 28 4 0 -44 3 -51 20 -51 18 0 20
7 20 54 0 33 -5 58 -12 63 -7 4 -48 8 -90 9 l-78 1 0 -63z"/>
<path d="M5190 2764 c0 -57 2 -64 19 -64 17 0 20 8 23 47 4 66 28 70 28 4 0
-44 3 -51 19 -51 17 0 20 8 23 47 4 66 28 70 28 4 0 -44 3 -51 20 -51 18 0 20
7 20 54 0 33 -5 58 -12 63 -7 4 -48 8 -90 9 l-78 1 0 -63z"/>
<path d="M6111 2816 c-6 -8 -11 -27 -10 -42 0 -16 -2 -44 -5 -63 -7 -42 7 -61
46 -61 86 0 92 78 6 81 -19 1 -17 2 9 10 28 8 53 46 53 79 0 14 -88 10 -99 -4z"/>
<path d="M500 2455 c0 -22 4 -25 35 -25 l35 0 0 -105 0 -105 30 0 30 0 0 105
0 105 35 0 c31 0 35 3 35 25 0 25 0 25 -100 25 -100 0 -100 0 -100 -25z"/>
<path d="M720 2350 l0 -130 25 0 c24 0 25 2 25 69 0 61 3 70 20 76 33 10 40
-3 40 -76 0 -67 1 -69 25 -69 24 0 25 2 25 73 0 103 -31 139 -91 107 -17 -10
-19 -7 -19 35 0 41 -2 45 -25 45 l-25 0 0 -130z"/>
<path d="M1570 2350 l0 -130 25 0 c24 0 25 2 25 69 0 61 3 70 20 76 33 10 40
-3 40 -76 0 -67 1 -69 25 -69 24 0 25 2 25 73 0 103 -31 139 -91 107 -17 -10
-19 -7 -19 35 0 41 -2 45 -25 45 l-25 0 0 -130z"/>
<path d="M2050 2350 l0 -130 25 0 c24 0 25 2 25 69 0 61 3 70 20 76 33 10 40
-3 40 -76 0 -67 1 -69 25 -69 24 0 25 2 25 73 0 103 -31 139 -91 107 -17 -10
-19 -7 -19 35 0 41 -2 45 -25 45 l-25 0 0 -130z"/>
<path d="M2470 2440 c0 -38 -2 -40 -24 -34 -36 9 -64 -4 -81 -36 -19 -37 -19
-73 0 -110 17 -33 30 -38 103 -38 l52 0 0 129 0 129 -25 0 c-23 0 -25 -4 -25
-40z"/>
<path d="M3910 2440 c0 -38 -2 -40 -24 -34 -14 3 -34 3 -45 -1 -25 -8 -51 -54
-51 -90 0 -35 26 -82 47 -88 10 -3 42 -5 71 -5 l52 0 0 129 0 129 -25 0 c-23
0 -25 -4 -25 -40z"/>
<path d="M6960 2350 l0 -130 25 0 c22 0 25 4 25 34 0 50 16 53 40 6 16 -30 26
-40 45 -40 31 0 31 4 -4 65 l-29 50 30 38 30 37 -30 0 c-22 0 -37 -9 -56 -32
l-26 -33 0 68 c0 65 -1 67 -25 67 l-25 0 0 -130z"/>
<path d="M1110 2440 c0 -20 -5 -30 -15 -30 -8 0 -15 -9 -15 -20 0 -11 7 -20
15 -20 12 0 15 -14 15 -63 0 -72 10 -87 57 -87 26 0 33 4 33 20 0 13 -7 20
-20 20 -18 0 -20 7 -20 55 0 48 2 55 20 55 13 0 20 7 20 20 0 13 -7 20 -20 20
-16 0 -20 7 -20 30 0 25 -4 30 -25 30 -21 0 -25 -5 -25 -30z"/>
<path d="M3580 2440 c0 -20 -5 -30 -15 -30 -8 0 -15 -9 -15 -20 0 -11 7 -20
15 -20 12 0 15 -14 15 -63 0 -72 10 -87 57 -87 26 0 33 4 33 20 0 13 -7 20
-20 20 -18 0 -20 7 -20 55 0 48 2 55 20 55 13 0 20 7 20 20 0 13 -7 20 -20 20
-16 0 -20 7 -20 30 0 25 -4 30 -25 30 -21 0 -25 -5 -25 -30z"/>
<path d="M4350 2440 c0 -20 -5 -30 -15 -30 -8 0 -15 -9 -15 -20 0 -11 7 -20
15 -20 12 0 15 -14 15 -63 0 -72 10 -87 57 -87 26 0 33 4 33 20 0 13 -7 20
-20 20 -18 0 -20 7 -20 55 0 48 2 55 20 55 13 0 20 7 20 20 0 13 -7 20 -20 20
-16 0 -20 7 -20 30 0 25 -4 30 -25 30 -21 0 -25 -5 -25 -30z"/>
<path d="M930 2392 c-20 -16 -20 -19 -7 -31 12 -9 21 -10 37 -1 22 12 50 7 50
-9 0 -5 -16 -12 -36 -15 -62 -12 -94 -65 -59 -100 10 -10 35 -14 80 -14 l65 0
0 74 c0 61 -4 78 -20 94 -25 25 -80 26 -110 2z"/>
<path d="M1315 2388 c43 -170 40 -163 67 -166 23 -3 27 1 33 37 4 23 10 41 15
41 5 0 11 -18 15 -41 6 -36 10 -40 33 -37 27 3 24 -4 67 166 4 18 1 22 -19 22
-20 0 -26 -8 -37 -47 l-13 -48 -9 48 c-9 42 -13 47 -37 47 -24 0 -28 -5 -37
-47 l-9 -48 -13 48 c-11 39 -17 47 -37 47 -20 0 -23 -4 -19 -22z"/>
<path d="M1890 2390 c-39 -39 -38 -126 3 -155 31 -22 83 -19 109 7 20 20 20
22 3 34 -16 12 -21 11 -37 -3 -28 -26 -53 -6 -53 42 0 48 25 68 53 42 15 -14
21 -15 35 -4 19 14 12 29 -20 46 -33 17 -71 13 -93 -9z"/>
<path d="M2592 2403 c-18 -7 -42 -57 -42 -88 0 -39 27 -84 55 -91 79 -20 132
66 90 145 -19 38 -60 51 -103 34z"/>
<path d="M2755 2387 c-22 -19 -27 -31 -27 -72 0 -41 5 -53 27 -72 32 -28 84
-30 115 -5 20 16 21 19 6 31 -14 12 -21 12 -41 1 -27 -15 -55 -7 -55 15 0 12
12 15 55 15 49 0 55 2 55 20 0 29 -26 76 -45 84 -32 12 -64 6 -90 -17z"/>
<path d="M2932 2394 c-33 -23 -29 -61 9 -82 17 -9 38 -22 47 -29 16 -11 16
-12 -1 -18 -11 -5 -25 -1 -35 8 -15 14 -19 14 -37 1 -20 -15 -20 -15 4 -35 45
-37 131 -14 131 35 0 25 -20 46 -62 64 -16 6 -28 16 -28 22 0 13 33 13 46 1 5
-6 16 -5 27 4 17 12 17 14 -5 29 -29 20 -67 20 -96 0z"/>
<path d="M3190 2314 c0 -94 0 -94 25 -94 24 0 25 2 25 69 0 61 3 70 20 76 33
10 40 -3 40 -76 0 -67 1 -69 25 -69 25 0 25 1 25 78 0 99 -10 110 -97 110
l-63 0 0 -94z"/>
<path d="M3422 2403 c-18 -7 -42 -57 -42 -88 0 -39 27 -84 55 -91 79 -20 132
66 90 145 -19 38 -60 51 -103 34z"/>
<path d="M4015 2387 c-22 -19 -27 -31 -27 -72 0 -41 5 -53 27 -72 32 -28 84
-30 115 -5 20 16 21 19 6 31 -14 12 -21 12 -41 1 -27 -15 -55 -7 -55 15 0 12
12 15 55 15 49 0 55 2 55 20 0 29 -26 76 -45 84 -32 12 -64 6 -90 -17z"/>
<path d="M4192 2394 c-33 -23 -29 -61 9 -82 17 -9 38 -22 47 -29 16 -11 16
-12 -1 -18 -11 -5 -25 -1 -35 8 -15 14 -19 14 -37 1 -20 -15 -20 -15 4 -35 45
-37 131 -14 131 35 0 25 -20 46 -62 64 -16 6 -28 16 -28 22 0 13 33 13 46 1 5
-6 16 -5 27 4 17 12 17 14 -5 29 -29 20 -67 20 -96 0z"/>
<path d="M4612 2403 c-18 -7 -42 -57 -42 -88 0 -39 27 -84 55 -91 79 -20 132
66 90 145 -19 38 -60 51 -103 34z"/>
<path d="M4740 2406 c0 -3 12 -41 26 -86 29 -94 29 -124 -3 -128 -32 -5 -32
-42 0 -42 46 0 65 27 98 133 18 56 34 108 37 115 3 10 -3 13 -24 10 -25 -3
-30 -9 -38 -45 -5 -24 -12 -43 -16 -43 -4 0 -11 19 -16 43 -8 36 -13 42 -36
45 -16 2 -28 1 -28 -2z"/>
<path d="M5030 2315 c0 -95 0 -95 25 -95 24 0 25 2 25 69 0 54 3 70 16 75 28
11 34 -3 34 -75 0 -67 1 -69 25 -69 24 0 25 2 25 69 0 61 3 70 20 76 33 10 40
-3 40 -76 0 -67 1 -69 25 -69 25 0 25 1 25 79 0 94 -14 117 -64 106 -35 -7
-35 -7 -128 0 l-68 4 0 -94z"/>
<path d="M5345 2387 c-22 -19 -27 -31 -27 -72 0 -41 5 -53 27 -72 32 -28 84
-30 115 -5 20 16 21 19 6 31 -14 12 -21 12 -41 1 -27 -15 -55 -7 -55 15 0 12
12 15 55 15 49 0 55 2 55 20 0 29 -26 76 -45 84 -32 12 -64 6 -90 -17z"/>
<path d="M5762 2403 c-18 -7 -42 -57 -42 -88 0 -39 27 -84 55 -91 79 -20 132
66 90 145 -19 38 -60 51 -103 34z"/>
<path d="M5910 2314 c0 -94 0 -94 25 -94 24 0 25 2 25 69 0 61 3 70 20 76 33
10 40 -3 40 -76 0 -67 1 -69 25 -69 25 0 25 1 25 78 0 99 -10 110 -97 110
l-63 0 0 -94z"/>
<path d="M6190 2406 c0 -3 12 -41 26 -86 29 -94 29 -124 -3 -128 -32 -5 -32
-42 0 -42 46 0 65 27 98 133 18 56 34 108 37 115 3 10 -3 13 -24 10 -25 -3
-30 -9 -38 -45 -5 -24 -12 -43 -16 -43 -4 0 -11 19 -16 43 -8 36 -13 42 -36
45 -16 2 -28 1 -28 -2z"/>
<path d="M6480 2315 c0 -95 0 -95 25 -95 24 0 25 2 25 69 0 54 3 70 16 75 28
11 34 -3 34 -75 0 -67 1 -69 25 -69 24 0 25 2 25 69 0 61 3 70 20 76 33 10 40
-3 40 -76 0 -67 1 -69 25 -69 25 0 25 1 25 79 0 94 -14 117 -64 106 -35 -7
-35 -7 -128 0 l-68 4 0 -94z"/>
<path d="M6790 2392 c-20 -16 -20 -19 -7 -31 12 -9 21 -10 37 -1 22 12 50 7
50 -9 0 -5 -16 -12 -36 -15 -62 -12 -94 -65 -59 -100 10 -10 35 -14 80 -14
l65 0 0 74 c0 61 -4 78 -20 94 -25 25 -80 26 -110 2z"/>
<path d="M7155 2387 c-22 -19 -27 -31 -27 -72 0 -41 5 -53 27 -72 32 -28 84
-30 115 -5 20 16 21 19 6 31 -14 12 -21 12 -41 1 -27 -15 -55 -7 -55 15 0 12
12 15 55 15 49 0 55 2 55 20 0 29 -26 76 -45 84 -32 12 -64 6 -90 -17z"/>
<path d="M7332 2394 c-33 -23 -29 -61 9 -82 17 -9 38 -22 47 -29 16 -11 16
-12 -1 -18 -11 -5 -25 -1 -35 8 -15 14 -19 14 -37 1 -20 -15 -20 -15 4 -35 45
-37 131 -14 131 35 0 25 -20 46 -62 64 -16 6 -28 16 -28 22 0 13 33 13 46 1 5
-6 16 -5 27 4 17 12 17 14 -5 29 -29 20 -67 20 -96 0z"/>
<path d="M7590 2315 c0 -95 0 -95 25 -95 24 0 25 2 25 69 0 54 3 70 16 75 28
11 34 -3 34 -75 0 -67 1 -69 25 -69 24 0 25 2 25 69 0 61 3 70 20 76 33 10 40
-3 40 -76 0 -67 1 -69 25 -69 25 0 25 1 25 79 0 94 -14 117 -64 106 -35 -7
-35 -7 -128 0 l-68 4 0 -94z"/>
<path d="M500 1935 c0 -35 0 -35 45 -35 l45 0 0 -145 0 -145 40 0 40 0 0 145
0 145 45 0 c45 0 45 0 45 35 l0 35 -130 0 -130 0 0 -35z"/>
<path d="M800 1790 l0 -180 35 0 34 0 3 91 c3 96 15 120 52 106 13 -5 16 -23
16 -102 l0 -95 35 0 35 0 0 105 c0 100 -1 107 -26 132 -25 25 -52 27 -96 8
-16 -6 -18 0 -18 54 l0 61 -35 0 -35 0 0 -180z"/>
<path d="M1940 1790 l0 -180 35 0 34 0 3 91 c3 96 15 120 52 106 13 -5 16 -23
16 -102 l0 -95 35 0 35 0 0 105 c0 100 -1 107 -26 132 -25 25 -52 27 -96 8
-16 -6 -18 0 -18 54 l0 61 -35 0 -35 0 0 -180z"/>
<path d="M2580 1790 l0 -180 35 0 34 0 3 91 c3 96 15 120 52 106 13 -5 16 -23
16 -102 l0 -95 35 0 35 0 0 105 c0 100 -1 107 -26 132 -25 25 -52 27 -96 8
-16 -6 -18 0 -18 54 l0 61 -35 0 -35 0 0 -180z"/>
<path d="M3140 1911 l0 -59 -30 11 c-68 26 -125 -30 -125 -123 0 -95 57 -149
128 -122 21 8 33 9 35 2 2 -5 17 -10 33 -10 l29 0 0 180 0 180 -35 0 -35 0 0
-59z"/>
<path d="M5070 1911 l0 -59 -30 11 c-68 26 -125 -30 -125 -123 0 -95 57 -149
128 -122 21 8 33 9 35 2 2 -5 17 -10 33 -10 l29 0 0 180 0 180 -35 0 -35 0 0
-59z"/>
<path d="M1320 1910 c0 -29 -4 -40 -15 -40 -10 0 -15 -10 -15 -30 0 -20 5 -30
15 -30 12 0 15 -16 15 -83 0 -99 12 -117 78 -117 40 0 42 1 42 30 0 25 -4 30
-25 30 -24 0 -25 2 -25 70 0 68 1 70 25 70 21 0 25 5 25 30 0 25 -4 30 -25 30
-22 0 -25 4 -25 40 0 39 -1 40 -35 40 -34 0 -35 -1 -35 -40z"/>
<path d="M4630 1910 c0 -29 -4 -40 -15 -40 -10 0 -15 -10 -15 -30 0 -20 5 -30
15 -30 12 0 15 -16 15 -83 0 -99 12 -117 78 -117 40 0 42 1 42 30 0 25 -4 30
-25 30 -24 0 -25 2 -25 70 0 68 1 70 25 70 21 0 25 5 25 30 0 25 -4 30 -25 30
-22 0 -25 4 -25 40 0 39 -1 40 -35 40 -34 0 -35 -1 -35 -40z"/>
<path d="M5660 1910 c0 -29 -4 -40 -15 -40 -10 0 -15 -10 -15 -30 0 -20 5 -30
15 -30 12 0 15 -16 15 -83 0 -99 12 -117 78 -117 40 0 42 1 42 30 0 25 -4 30
-25 30 -24 0 -25 2 -25 70 0 68 1 70 25 70 21 0 25 5 25 30 0 25 -4 30 -25 30
-22 0 -25 4 -25 40 0 39 -1 40 -35 40 -34 0 -35 -1 -35 -40z"/>
<path d="M1100 1853 c-37 -25 -41 -36 -21 -56 17 -17 19 -17 48 -1 16 10 37
15 46 11 20 -7 23 -37 5 -37 -33 0 -93 -24 -114 -45 -62 -62 11 -139 100 -105
16 6 27 6 31 0 4 -6 19 -10 36 -10 l29 0 0 95 c0 52 -5 105 -11 118 -21 46
-102 62 -149 30z"/>
<path d="M1594 1848 c3 -13 18 -71 33 -130 l28 -108 32 0 c31 0 32 2 44 60 6
33 15 60 19 60 4 0 13 -27 19 -60 12 -58 13 -60 44 -60 l32 0 28 108 c15 59
30 117 33 130 6 20 3 22 -28 22 l-35 0 -15 -67 -15 -68 -15 65 c-14 64 -15 65
-48 65 -33 0 -34 -1 -49 -65 l-15 -65 -14 68 -15 67 -35 0 c-31 0 -34 -2 -28
-22z"/>
<path d="M2210 1740 l0 -130 35 0 35 0 0 130 0 130 -35 0 -35 0 0 -130z"/>
<path d="M2374 1851 c-51 -31 -68 -108 -40 -176 32 -76 146 -87 191 -19 14 22
14 25 -9 39 -23 15 -26 15 -45 -4 -42 -42 -81 -17 -81 49 0 64 41 92 76 51 14
-16 22 -17 45 -9 25 9 27 12 16 35 -23 51 -98 68 -153 34z"/>
<path d="M3310 1858 c-32 -17 -60 -72 -60 -118 0 -19 8 -51 18 -70 47 -94 178
-71 198 35 9 48 -3 100 -29 131 -26 30 -89 41 -127 22z"/>
<path d="M3524 1836 c-31 -31 -34 -39 -34 -96 0 -57 3 -65 34 -96 38 -38 86
-45 135 -20 48 25 55 41 25 61 -23 15 -27 15 -43 1 -33 -30 -81 -14 -81 26 0
16 9 18 75 18 69 0 75 2 75 20 0 38 -28 89 -59 104 -50 26 -88 21 -127 -18z"/>
<path d="M3768 1854 c-31 -16 -46 -58 -31 -83 5 -9 34 -28 64 -43 54 -27 69
-50 36 -56 -10 -2 -29 4 -43 12 -18 13 -29 14 -44 6 -27 -15 -25 -24 11 -54
75 -63 198 -2 160 80 -6 13 -21 28 -33 33 -13 5 -38 15 -56 21 -18 7 -31 18
-29 24 6 18 37 19 56 2 16 -15 19 -14 40 8 l23 25 -33 20 c-40 24 -83 26 -121
5z"/>
<path d="M4110 1740 l0 -130 35 0 34 0 3 91 c3 96 15 120 52 106 13 -5 16 -23
16 -102 l0 -95 35 0 35 0 0 105 c0 99 -2 107 -25 130 -26 27 -63 32 -98 14
-16 -9 -22 -9 -25 0 -2 6 -17 11 -33 11 l-29 0 0 -130z"/>
<path d="M4420 1858 c-32 -17 -60 -72 -60 -118 0 -19 8 -51 18 -70 47 -94 178
-71 198 35 9 48 -3 100 -29 131 -26 30 -89 41 -127 22z"/>
<path d="M5214 1836 c-31 -31 -34 -39 -34 -96 0 -57 3 -65 34 -96 38 -38 86
-45 135 -20 48 25 55 41 25 61 -23 15 -27 15 -43 1 -33 -30 -81 -14 -81 26 0
16 9 18 75 18 69 0 75 2 75 20 0 38 -28 89 -59 104 -50 26 -88 21 -127 -18z"/>
<path d="M5458 1854 c-31 -16 -46 -58 -31 -83 5 -9 34 -28 64 -43 54 -27 69
-50 36 -56 -10 -2 -29 4 -43 12 -18 13 -29 14 -44 6 -27 -15 -25 -24 11 -54
75 -63 198 -2 160 80 -6 13 -21 28 -33 33 -13 5 -38 15 -56 21 -18 7 -31 18
-29 24 6 18 37 19 56 2 16 -15 19 -14 40 8 l23 25 -33 20 c-40 24 -83 26 -121
5z"/>
<path d="M5800 1740 l0 -130 35 0 35 0 0 78 c0 83 14 112 53 112 13 0 17 9 17
35 0 37 -14 44 -50 25 -13 -7 -21 -7 -25 0 -3 5 -19 10 -36 10 l-29 0 0 -130z"/>
<path d="M6010 1858 c-32 -17 -60 -72 -60 -118 0 -19 8 -51 18 -70 47 -94 178
-71 198 35 9 48 -3 100 -29 131 -26 30 -89 41 -127 22z"/>
<path d="M6180 1866 c0 -2 16 -55 35 -116 19 -61 35 -119 35 -129 0 -24 -20
-41 -47 -41 -19 0 -23 -5 -23 -30 0 -28 3 -30 35 -30 56 0 77 30 129 186 25
76 46 145 46 152 0 7 -13 12 -33 12 -32 0 -34 -2 -46 -52 -21 -83 -26 -85 -45
-14 -18 65 -19 66 -52 66 -19 0 -34 -2 -34 -4z"/>
<path d="M6570 1740 l0 -130 35 0 35 0 0 89 c0 92 12 120 45 107 12 -4 15 -25
15 -101 l0 -95 35 0 35 0 0 90 c0 80 2 90 21 100 41 23 49 8 49 -95 l0 -95 35
0 35 0 0 101 c0 95 -9 135 -34 151 -17 12 -55 9 -84 -6 -24 -12 -30 -12 -47 0
-23 17 -59 18 -88 3 -16 -9 -22 -9 -25 0 -2 6 -17 11 -33 11 l-29 0 0 -130z"/>
<path d="M6984 1836 c-31 -31 -34 -39 -34 -96 0 -57 3 -65 34 -96 38 -38 86
-45 135 -20 48 25 55 41 25 61 -23 15 -27 15 -43 1 -33 -30 -81 -14 -81 26 0
16 9 18 75 18 69 0 75 2 75 20 0 38 -28 89 -59 104 -50 26 -88 21 -127 -18z"/>
<path d="M7550 1858 c-32 -17 -60 -72 -60 -118 0 -19 8 -51 18 -70 47 -94 178
-71 198 35 9 48 -3 100 -29 131 -26 30 -89 41 -127 22z"/>
<path d="M7750 1740 l0 -130 35 0 34 0 3 91 c3 96 15 120 52 106 13 -5 16 -23
16 -102 l0 -95 35 0 35 0 0 105 c0 99 -2 107 -25 130 -26 27 -63 32 -98 14
-16 -9 -22 -9 -25 0 -2 6 -17 11 -33 11 l-29 0 0 -130z"/>
<path d="M510 1300 l0 -40 55 0 55 0 0 -185 0 -185 50 0 50 0 0 185 0 185 55
0 55 0 0 40 0 40 -160 0 -160 0 0 -40z"/>
<path d="M860 1115 l0 -225 45 0 45 0 0 118 c0 118 0 119 25 130 60 28 65 18
65 -134 l0 -114 45 0 45 0 0 125 c0 133 -10 174 -49 195 -28 14 -67 12 -101
-5 l-30 -16 0 76 0 75 -45 0 -45 0 0 -225z"/>
<path d="M2270 1115 l0 -225 45 0 45 0 0 118 c0 118 0 119 25 130 60 28 65 18
65 -134 l0 -114 45 0 45 0 0 125 c0 133 -10 174 -49 195 -28 14 -67 12 -101
-5 l-30 -16 0 76 0 75 -45 0 -45 0 0 -225z"/>
<path d="M3070 1115 l0 -225 45 0 45 0 0 118 c0 118 0 119 25 130 60 28 65 18
65 -134 l0 -114 45 0 45 0 0 125 c0 133 -10 174 -49 195 -28 14 -67 12 -101
-5 l-30 -16 0 76 0 75 -45 0 -45 0 0 -225z"/>
<path d="M3760 1269 c0 -64 -2 -70 -17 -63 -10 5 -37 8 -60 8 -123 1 -170
-203 -67 -293 39 -35 81 -40 127 -17 15 8 27 11 27 5 0 -5 18 -9 40 -9 l40 0
0 220 0 220 -45 0 -45 0 0 -71z m-16 -132 c23 -17 20 -154 -5 -170 -43 -27
-89 19 -89 89 0 75 47 115 94 81z"/>
<path d="M6150 1269 c0 -64 -2 -70 -17 -63 -10 5 -37 8 -60 8 -123 1 -170
-203 -67 -293 39 -35 81 -40 127 -17 15 8 27 11 27 5 0 -5 18 -9 40 -9 l40 0
0 220 0 220 -45 0 -45 0 0 -71z m-16 -132 c23 -17 20 -154 -5 -170 -43 -27
-89 19 -89 89 0 75 47 115 94 81z"/>
<path d="M1500 1270 c0 -43 -3 -50 -20 -50 -16 0 -20 -7 -20 -35 0 -28 4 -35
20 -35 19 0 20 -7 20 -109 0 -106 1 -110 26 -130 19 -15 41 -21 75 -21 l49 0
0 38 c0 37 -1 38 -30 34 l-30 -4 0 96 0 96 30 0 c28 0 30 3 30 35 0 32 -2 35
-30 35 -29 0 -30 1 -30 50 l0 50 -45 0 -45 0 0 -50z"/>
<path d="M5600 1270 c0 -43 -3 -50 -20 -50 -16 0 -20 -7 -20 -35 0 -28 4 -35
20 -35 19 0 20 -7 20 -109 0 -106 1 -110 26 -130 19 -15 41 -21 75 -21 l49 0
0 38 c0 37 -1 38 -30 34 l-30 -4 0 96 0 96 30 0 c28 0 30 3 30 35 0 32 -2 35
-30 35 -29 0 -30 1 -30 50 l0 50 -45 0 -45 0 0 -50z"/>
<path d="M6880 1270 c0 -43 -3 -50 -20 -50 -16 0 -20 -7 -20 -35 0 -28 4 -35
20 -35 19 0 20 -7 20 -109 0 -106 1 -110 26 -130 19 -15 41 -21 75 -21 l49 0
0 38 c0 37 -1 38 -30 34 l-30 -4 0 96 0 96 30 0 c28 0 30 3 30 35 0 32 -2 35
-30 35 -29 0 -30 1 -30 50 l0 50 -45 0 -45 0 0 -50z"/>
<path d="M1235 1207 c-17 -8 -37 -22 -45 -32 -13 -16 -12 -20 14 -42 l28 -24
22 20 c33 31 86 25 86 -9 0 -14 -13 -21 -57 -30 -112 -24 -157 -108 -93 -172
29 -28 34 -30 78 -23 26 4 73 6 105 5 l59 -1 -4 130 c-3 126 -4 131 -30 157
-32 33 -114 43 -163 21z"/>
<path d="M1840 1215 c0 -3 14 -61 31 -128 54 -219 44 -197 89 -197 l38 0 18
75 c10 41 21 75 24 75 3 0 14 -34 24 -75 l18 -75 38 0 c45 0 35 -22 89 197 17
67 31 125 31 128 0 3 -19 5 -42 3 -40 -3 -43 -5 -50 -43 -5 -22 -14 -58 -20
-80 l-11 -40 -13 60 c-8 33 -16 70 -19 83 -4 18 -12 22 -45 22 -42 0 -40 3
-61 -92 -7 -32 -15 -58 -19 -58 -3 0 -13 33 -21 73 l-14 72 -43 3 c-23 2 -42
0 -42 -3z"/>
<path d="M2610 1055 l0 -165 45 0 45 0 0 165 0 165 -45 0 -45 0 0 -165z"/>
<path d="M2819 1197 c-47 -32 -64 -70 -64 -147 0 -75 16 -109 68 -141 48 -30
127 -22 167 16 37 36 38 51 1 69 -27 14 -30 14 -52 -10 -47 -50 -99 -14 -99
71 0 83 56 124 97 72 18 -23 21 -24 51 -11 37 15 38 21 16 53 -37 52 -129 66
-185 28z"/>
<path d="M3963 1200 c-52 -32 -68 -65 -68 -145 0 -80 16 -113 68 -145 41 -25
93 -25 134 0 52 32 68 65 68 145 0 51 -5 78 -18 98 -25 38 -75 67 -117 67 -19
0 -49 -9 -67 -20z m104 -80 c18 -35 16 -111 -3 -138 -36 -51 -84 -10 -84 73 0
86 56 127 87 65z"/>
<path d="M4275 1210 c-98 -40 -116 -211 -30 -290 38 -35 134 -36 183 -2 39 29
40 42 4 63 -27 15 -30 15 -51 -2 -42 -34 -101 -15 -101 32 0 17 8 19 90 19
l90 0 0 41 c0 107 -93 177 -185 139z"/>
<path d="M4556 1205 c-38 -20 -55 -44 -56 -78 0 -45 17 -65 80 -97 64 -32 76
-56 34 -66 -18 -5 -34 0 -54 15 -36 26 -36 26 -67 1 l-25 -20 32 -30 c56 -52
149 -52 202 0 54 55 24 130 -67 165 -32 12 -45 22 -43 34 4 21 51 26 68 7 17
-22 33 -20 58 7 21 23 21 24 5 40 -43 38 -117 48 -167 22z"/>
<path d="M5073 1205 c-18 -8 -33 -10 -33 -5 0 6 -18 10 -40 10 l-40 0 0 -160
0 -160 45 0 45 0 0 118 c0 118 0 119 25 130 60 28 65 18 65 -134 l0 -114 45 0
45 0 0 125 c0 133 -10 174 -49 195 -27 14 -70 12 -108 -5z"/>
<path d="M5343 1200 c-52 -32 -68 -65 -68 -145 0 -80 16 -113 68 -145 41 -25
93 -25 134 0 52 32 68 65 68 145 0 51 -5 78 -18 98 -25 38 -75 67 -117 67 -19
0 -49 -9 -67 -20z m104 -80 c18 -35 16 -111 -3 -138 -36 -51 -84 -10 -84 73 0
86 56 127 87 65z"/>
<path d="M6365 1210 c-98 -40 -116 -211 -30 -290 38 -35 134 -36 183 -2 39 29
40 42 4 63 -27 15 -30 15 -51 -2 -42 -34 -101 -15 -101 32 0 17 8 19 90 19
l90 0 0 41 c0 107 -93 177 -185 139z"/>
<path d="M6646 1205 c-38 -20 -55 -44 -56 -78 0 -45 17 -65 80 -97 64 -32 76
-56 34 -66 -18 -5 -34 0 -54 15 -36 26 -36 26 -67 1 l-25 -20 32 -30 c56 -52
149 -52 202 0 54 55 24 130 -67 165 -32 12 -45 22 -43 34 4 21 51 26 68 7 17
-22 33 -20 58 7 21 23 21 24 5 40 -43 38 -117 48 -167 22z"/>
<path d="M7200 1213 c-8 -3 -23 -12 -32 -21 -16 -14 -18 -13 -18 1 0 13 -9 17
-40 17 l-40 0 0 -160 0 -160 45 0 45 0 0 103 c0 95 2 105 23 125 13 12 31 22
40 22 13 0 17 9 17 40 0 40 -6 45 -40 33z"/>
<path d="M7323 1200 c-52 -32 -68 -65 -68 -145 0 -80 16 -113 68 -145 41 -25
93 -25 134 0 52 32 68 65 68 145 0 51 -5 78 -18 98 -25 38 -75 67 -117 67 -19
0 -49 -9 -67 -20z m104 -80 c18 -35 16 -111 -3 -138 -36 -51 -84 -10 -84 73 0
86 56 127 87 65z"/>
<path d="M7540 1213 c0 -3 21 -73 47 -156 54 -175 53 -200 -10 -205 -35 -3
-37 -5 -37 -38 0 -33 1 -34 38 -34 37 0 75 19 99 50 7 8 38 94 69 190 31 96
59 181 61 188 4 8 -8 12 -41 12 -45 0 -45 0 -56 -42 -6 -24 -17 -63 -24 -88
l-13 -45 -11 40 c-6 22 -17 61 -24 88 -12 47 -12 47 -55 47 -24 0 -43 -3 -43
-7z"/>
<path d="M500 540 l0 -50 70 0 70 0 0 -220 0 -220 55 0 55 0 0 220 0 220 70 0
70 0 0 50 0 50 -195 0 -195 0 0 -50z"/>
<path d="M940 320 l0 -270 55 0 54 0 3 137 3 137 27 16 c21 11 32 12 45 4 16
-10 18 -30 21 -153 l3 -141 54 0 55 0 0 148 c0 120 -3 153 -18 182 -30 60 -98
77 -159 40 l-33 -20 0 95 0 95 -55 0 -55 0 0 -270z"/>
<path d="M2640 320 l0 -270 55 0 54 0 3 137 3 137 27 16 c21 11 32 12 45 4 16
-10 18 -30 21 -153 l3 -141 54 0 55 0 0 148 c0 120 -3 153 -18 182 -30 60 -98
77 -159 40 l-33 -20 0 95 0 95 -55 0 -55 0 0 -270z"/>
<path d="M3600 320 l0 -270 55 0 54 0 3 137 3 137 27 16 c21 11 32 12 45 4 16
-10 18 -30 21 -153 l3 -141 54 0 55 0 0 148 c0 120 -3 153 -18 182 -30 60 -98
77 -159 40 l-33 -20 0 95 0 95 -55 0 -55 0 0 -270z"/>
<path d="M4430 500 l0 -91 -30 16 c-61 32 -135 8 -178 -58 -23 -35 -27 -51
-27 -116 0 -121 46 -188 137 -198 31 -4 55 0 78 12 23 12 35 14 38 6 2 -6 24
-11 48 -11 l44 0 0 265 0 265 -55 0 -55 0 0 -90z m-19 -160 c16 -9 19 -22 19
-96 0 -81 -1 -85 -25 -96 -34 -15 -75 -1 -93 32 -20 39 -10 129 18 152 25 20
52 23 81 8z"/>
<path d="M7310 500 l0 -91 -30 16 c-61 32 -135 8 -178 -58 -23 -35 -27 -51
-27 -116 0 -121 46 -188 137 -198 31 -4 55 0 78 12 23 12 35 14 38 6 2 -6 24
-11 48 -11 l44 0 0 265 0 265 -55 0 -55 0 0 -90z m-19 -160 c16 -9 19 -22 19
-96 0 -81 -1 -85 -25 -96 -34 -15 -75 -1 -93 32 -20 39 -10 129 18 152 25 20
52 23 81 8z"/>
<path d="M1710 500 c0 -57 -1 -60 -25 -60 -23 0 -25 -4 -25 -45 0 -41 2 -45
25 -45 l25 0 0 -112 c0 -62 3 -123 6 -136 9 -32 54 -52 119 -52 l55 0 0 48 0
48 -35 -4 -35 -4 0 106 0 106 35 0 c35 0 35 0 35 45 0 45 0 45 -35 45 l-35 0
0 60 0 60 -55 0 -55 0 0 -60z"/>
<path d="M6650 500 c0 -57 -1 -60 -25 -60 -23 0 -25 -4 -25 -45 0 -41 2 -45
25 -45 l25 0 0 -112 c0 -62 3 -123 6 -136 9 -32 54 -52 119 -52 l55 0 0 48 0
48 -35 -4 -35 -4 0 106 0 106 35 0 c35 0 35 0 35 45 0 45 0 45 -35 45 l-35 0
0 60 0 60 -55 0 -55 0 0 -60z"/>
<path d="M1395 420 c-22 -11 -48 -31 -57 -44 -17 -23 -16 -24 18 -49 l35 -25
24 24 c39 39 105 28 105 -17 0 -11 -12 -18 -37 -23 -111 -18 -168 -54 -179
-112 -18 -94 80 -152 184 -109 24 10 38 12 40 5 2 -5 26 -10 53 -10 l49 0 0
138 c0 110 -3 144 -18 172 -33 67 -136 91 -217 50z"/>
<path d="M2125 411 c3 -16 25 -103 49 -193 l43 -163 46 -3 c45 -3 46 -3 56 35
6 21 16 64 22 96 6 31 15 57 19 57 4 0 13 -26 19 -57 6 -32 16 -75 22 -96 10
-38 11 -38 56 -35 l46 3 43 163 c24 90 46 177 49 193 l7 29 -51 0 -50 0 -22
-102 c-25 -111 -25 -112 -54 25 l-17 77 -48 0 -49 0 -22 -102 c-25 -111 -25
-112 -54 25 l-17 77 -50 0 c-50 0 -50 0 -43 -29z"/>
<path d="M3050 245 l0 -195 55 0 55 0 0 195 0 195 -55 0 -55 0 0 -195z"/>
<path d="M3315 426 c-110 -49 -141 -226 -56 -320 69 -76 189 -74 254 3 15 18
27 36 27 41 0 5 -16 18 -35 30 l-35 22 -29 -31 c-50 -53 -105 -33 -118 42 -12
77 15 137 63 137 23 0 58 -26 65 -49 5 -14 89 16 89 32 0 21 -54 80 -86 93
-42 17 -100 17 -139 0z"/>
<path d="M4686 420 c-63 -32 -94 -90 -94 -175 0 -113 70 -195 168 -195 98 0
168 82 168 195 0 85 -31 143 -94 175 -49 25 -99 25 -148 0z m100 -78 c21 -14
34 -51 34 -96 0 -54 -16 -93 -42 -101 -47 -16 -78 24 -78 101 0 64 23 104 60
104 8 0 20 -4 26 -8z"/>
<path d="M5041 424 c-18 -10 -45 -35 -60 -58 -23 -35 -26 -50 -26 -121 0 -71
3 -86 27 -122 31 -48 80 -73 140 -73 50 0 125 34 145 67 13 20 12 23 -23 47
l-38 26 -26 -25 c-44 -42 -120 -24 -120 28 0 15 14 17 110 17 l110 0 0 47 c0
58 -32 126 -72 155 -41 29 -121 35 -167 12z"/>
<path d="M5394 426 c-38 -17 -74 -61 -74 -92 0 -56 41 -94 132 -123 48 -16 65
-36 48 -56 -19 -22 -55 -18 -88 10 -36 31 -39 31 -77 -1 l-30 -25 41 -39 c70
-66 179 -67 242 -4 31 31 34 39 29 76 -7 54 -37 82 -117 110 -51 18 -65 28
-65 43 0 30 50 33 80 5 l23 -22 36 28 35 28 -22 25 c-45 48 -129 65 -193 37z"/>
<path d="M6020 424 c-22 -10 -36 -11 -38 -4 -2 5 -26 10 -53 10 l-49 0 0 -190
0 -190 55 0 54 0 3 137 3 137 27 16 c21 11 32 12 45 4 16 -10 18 -30 21 -153
l3 -141 54 0 55 0 0 145 c0 165 -10 204 -59 229 -37 20 -76 20 -121 0z"/>
<path d="M6346 420 c-63 -32 -94 -90 -94 -175 0 -113 70 -195 168 -195 98 0
168 82 168 195 0 85 -31 143 -94 175 -49 25 -99 25 -148 0z m100 -78 c21 -14
34 -51 34 -96 0 -77 -31 -117 -78 -101 -26 8 -42 47 -42 101 0 64 23 104 60
104 8 0 20 -4 26 -8z"/>
<path d="M7561 424 c-18 -10 -45 -35 -60 -58 -23 -35 -26 -50 -26 -121 0 -71
3 -86 27 -122 31 -48 80 -73 140 -73 50 0 125 34 145 67 13 20 12 23 -23 47
l-38 26 -26 -25 c-44 -42 -120 -24 -120 28 0 15 14 17 110 17 l110 0 0 47 c0
58 -32 126 -72 155 -41 29 -121 35 -167 12z"/>
<path d="M7914 426 c-17 -8 -40 -26 -52 -41 -43 -54 -22 -113 52 -150 68 -34
76 -33 76 15 0 29 -5 42 -20 50 -11 6 -20 18 -20 26 0 9 9 18 20 21 16 4 20
14 20 49 0 39 -3 44 -22 44 -13 -1 -37 -7 -54 -14z"/>
</g>
</svg>
